<mxfile host="Electron" modified="2024-12-16T21:46:04.386Z" agent="Mozilla/5.0 (Windows NT 10.0; Win64; x64) AppleWebKit/537.36 (KHTML, like Gecko) draw.io/24.0.4 Chrome/120.0.6099.109 Electron/28.1.0 Safari/537.36" etag="YoRyHe_PMH4O2bTpu2MB" version="24.0.4" type="device">
  <diagram name="Page-1" id="xSfpuH_KWZMvsDcLVU6G">
    <mxGraphModel dx="1434" dy="884" grid="1" gridSize="10" guides="1" tooltips="1" connect="1" arrows="1" fold="1" page="1" pageScale="1" pageWidth="827" pageHeight="1169" math="0" shadow="0">
      <root>
        <mxCell id="0" />
        <mxCell id="1" parent="0" />
        <mxCell id="hCo9Q1rI7oM0i6Kh0S9J-2" value="&lt;font style=&quot;font-size: 26px;&quot;&gt;Paper_Wallet_Generator_Doge_App_Planning&lt;/font&gt;" style="rounded=1;whiteSpace=wrap;html=1;" parent="1" vertex="1">
          <mxGeometry x="150" y="20" width="559" height="60" as="geometry" />
        </mxCell>
        <mxCell id="cg_cElnslzcDqIdvuktt-2" value="" style="rounded=0;whiteSpace=wrap;html=1;" vertex="1" parent="1">
          <mxGeometry x="130" y="150" width="587.25" height="520" as="geometry" />
        </mxCell>
        <mxCell id="cg_cElnslzcDqIdvuktt-3" value="&lt;font style=&quot;font-size: 31px;&quot;&gt;Resulting paper wallet visualization (pdf file)&lt;/font&gt;" style="rounded=1;whiteSpace=wrap;html=1;" vertex="1" parent="1">
          <mxGeometry x="179.5" y="180" width="500" height="370" as="geometry" />
        </mxCell>
        <mxCell id="cg_cElnslzcDqIdvuktt-4" value="Button generate paper wallet" style="rounded=1;whiteSpace=wrap;html=1;" vertex="1" parent="1">
          <mxGeometry x="320" y="585" width="210" height="60" as="geometry" />
        </mxCell>
        <mxCell id="cg_cElnslzcDqIdvuktt-5" value="button print paper wallet" style="rounded=1;whiteSpace=wrap;html=1;" vertex="1" parent="1">
          <mxGeometry x="142.75" y="585" width="167.25" height="60" as="geometry" />
        </mxCell>
        <mxCell id="cg_cElnslzcDqIdvuktt-6" value="button save paper wallet as pdf" style="rounded=1;whiteSpace=wrap;html=1;" vertex="1" parent="1">
          <mxGeometry x="530" y="585" width="180" height="60" as="geometry" />
        </mxCell>
      </root>
    </mxGraphModel>
  </diagram>
</mxfile>
